<svg xmlns="http://www.w3.org/2000/svg" viewBox="0 0 800 560" font-family="sans-serif">
<rect width="800" height="560" fill="#ffffff" stroke="#999"/>
<rect x="0" y="0" width="800" height="50" fill="#e0e0e0" stroke="#999"/>
<text x="20" y="30" font-size="14">[ LOGO ]</text>
<text x="600" y="30" font-size="12">Painel | Livros | Membros | Empréstimos</text>

<text x="20" y="80" font-size="18" font-weight="bold">Membros</text>

<rect x="20" y="100" width="760" height="130" fill="#fafafa" stroke="#999"/>
<text x="35" y="125" font-size="14" font-weight="bold">Formulário: novo membro</text>
<rect x="35" y="140" width="220" height="30" fill="#fff" stroke="#999"/><text x="45" y="160" font-size="10">Nome completo</text>
<rect x="270" y="140" width="220" height="30" fill="#fff" stroke="#999"/><text x="280" y="160" font-size="10">E-mail</text>
<rect x="505" y="140" width="160" height="30" fill="#fff" stroke="#999"/><text x="515" y="160" font-size="10">Matrícula</text>
<rect x="35" y="185" width="150" height="30" fill="#ccc" stroke="#999"/><text x="55" y="205" font-size="11">[Cadastrar]</text>

<rect x="20" y="250" width="760" height="290" fill="#fafafa" stroke="#999"/>
<text x="35" y="275" font-size="14" font-weight="bold">Membros cadastrados (tabela)</text>
<line x1="20" y1="290" x2="780" y2="290" stroke="#ccc"/>
<line x1="20" y1="325" x2="780" y2="325" stroke="#ccc"/>
<line x1="20" y1="360" x2="780" y2="360" stroke="#ccc"/>
</svg>
